<?xml version="1.0" encoding="utf-8"?>
<!-- Generator: Adobe Illustrator 16.0.0, SVG Export Plug-In . SVG Version: 6.00 Build 0)  -->
<!DOCTYPE svg PUBLIC "-//W3C//DTD SVG 1.1//EN" "http://www.w3.org/Graphics/SVG/1.1/DTD/svg11.dtd" [
	<!ENTITY ns_extend "http://ns.adobe.com/Extensibility/1.0/">
	<!ENTITY ns_ai "http://ns.adobe.com/AdobeIllustrator/10.0/">
	<!ENTITY ns_graphs "http://ns.adobe.com/Graphs/1.0/">
	<!ENTITY ns_vars "http://ns.adobe.com/Variables/1.0/">
	<!ENTITY ns_imrep "http://ns.adobe.com/ImageReplacement/1.0/">
	<!ENTITY ns_sfw "http://ns.adobe.com/SaveForWeb/1.0/">
	<!ENTITY ns_custom "http://ns.adobe.com/GenericCustomNamespace/1.0/">
	<!ENTITY ns_adobe_xpath "http://ns.adobe.com/XPath/1.0/">
]>
<svg version="1.1" id="图层_1" xmlns:x="&ns_extend;" xmlns:i="&ns_ai;" xmlns:graph="&ns_graphs;"
	 xmlns="http://www.w3.org/2000/svg" xmlns:xlink="http://www.w3.org/1999/xlink" x="0px" y="0px" width="65px" height="40px"
	 viewBox="0 0 65 40" style="enable-background:new 0 0 65 40;" xml:space="preserve">
<metadata>
	<sfw  xmlns="&ns_sfw;">
		<slices></slices>
		<sliceSourceBounds  height="40" width="65" y="-40" x="0" bottomLeftOrigin="true"></sliceSourceBounds>
	</sfw>
</metadata>
<g id="XMLID_1_">
	<path style="fill:#FFFFFF;" d="M64,29c0,5.5-4.5,10-10,10H11C5.5,39,1,34.5,1,29V11C1,5.5,5.5,1,11,1h43c5.5,0,10,4.5,10,10V29z"/>
	<path style="fill:none;stroke:#0071BC;stroke-width:2;stroke-miterlimit:10;" d="M64,29c0,5.5-4.5,10-10,10H11C5.5,39,1,34.5,1,29
		V11C1,5.5,5.5,1,11,1h43c5.5,0,10,4.5,10,10V29z"/>
</g>
<g>
	<path style="fill:#2E75B6;" d="M14.275,30.75c-0.399-0.692-0.945-1.28-1.701-1.826c3.905-0.966,7.118-3.275,7.832-6.404
		c-3.107,0.021-4.934,0.084-7.097,0.211v-1.869c2.247,0.105,4.073,0.168,7.328,0.189c0.168-1.239,0.21-2.583,0.168-4.011
		c-3.065,0.021-4.661,0.063-6.53,0.189v-1.89c2.331,0.126,4.325,0.189,8.629,0.189c1.155-1.911,1.638-3.128,2.037-4.409
		c0.651,0.378,1.953,1.029,2.205,1.092c0.378,0.084,0.42,0.189-0.105,0.525c-0.294,0.189-1.407,1.386-2.31,2.792
		c2.352-0.021,3.464-0.063,5.165-0.189v1.89c-2.142-0.147-3.338-0.189-7.202-0.189c0.042,1.575,0,2.792-0.168,4.011
		c4.262,0,5.627-0.043,8.021-0.189v1.869c-2.373-0.147-3.716-0.211-7.874-0.211c1.806,3.486,4.808,5.061,8.545,5.502
		c-0.651,0.65-0.966,1.364-1.155,2.309c-3.821-1.26-7.055-3.548-8.042-6.887C21.12,26.342,18.936,28.42,14.275,30.75z
		 M19.104,15.318c-0.546-0.987-1.407-2.268-2.1-2.897l1.617-1.029c0.63,0.882,1.575,2.037,2.268,2.792L19.104,15.318z"/>
	<path style="fill:#2E75B6;" d="M36.808,20.378c-0.756-0.882-2.163-1.806-3.107-2.184l1.196-1.449
		c1.051,0.546,2.289,1.323,3.191,2.037L36.808,20.378z M37.207,26.258c-0.336,1.26-0.693,2.561-1.008,3.8
		c-0.735-0.608-1.407-0.966-2.163-1.218c0.588-0.966,1.092-2.184,1.532-3.506c0.379-1.239,0.735-2.52,1.029-3.801
		c0.441,0.462,1.05,0.84,1.701,1.05C37.941,23.675,37.584,24.935,37.207,26.258z M37.752,15.57
		c-0.629-0.693-1.805-1.722-2.834-2.331l1.218-1.386c1.028,0.672,2.036,1.428,2.897,2.163L37.752,15.57z M44.471,22.1
		c-1.721,0.021-3.086,0.084-4.156,0.211v-1.995c1.07,0.126,2.436,0.189,4.156,0.21v-4.409c-2.1,0.021-3.695,0.084-4.934,0.21v-1.974
		c1.449,0.147,3.402,0.21,6.068,0.21s4.598-0.063,6.047-0.21v1.974c-1.322-0.126-3.045-0.189-5.354-0.21v4.409
		c1.932-0.021,3.4-0.084,4.576-0.21v1.995c-1.176-0.127-2.645-0.189-4.576-0.211v5.564c2.352-0.021,4.156-0.084,5.521-0.21v1.974
		c-1.555-0.146-3.654-0.21-6.488-0.21s-4.934,0.063-6.488,0.21v-1.974c1.387,0.126,3.213,0.188,5.627,0.21V22.1z M44.639,14.122
		c-0.168-0.903-0.461-1.701-0.881-2.478l1.973-0.651c0.4,0.819,0.715,1.554,0.988,2.457L44.639,14.122z"/>
</g>
<g>
</g>
<g>
</g>
<g>
</g>
<g>
</g>
<g>
</g>
<g>
</g>
<g>
</g>
<g>
</g>
<g>
</g>
<g>
</g>
<g>
</g>
<g>
</g>
<g>
</g>
<g>
</g>
<g>
</g>
</svg>
