<?xml version="1.0" encoding="utf-8"?>
<!-- Generator: Adobe Illustrator 16.0.0, SVG Export Plug-In . SVG Version: 6.00 Build 0)  -->
<!DOCTYPE svg PUBLIC "-//W3C//DTD SVG 1.1//EN" "http://www.w3.org/Graphics/SVG/1.1/DTD/svg11.dtd" [
	<!ENTITY ns_extend "http://ns.adobe.com/Extensibility/1.0/">
	<!ENTITY ns_ai "http://ns.adobe.com/AdobeIllustrator/10.0/">
	<!ENTITY ns_graphs "http://ns.adobe.com/Graphs/1.0/">
	<!ENTITY ns_vars "http://ns.adobe.com/Variables/1.0/">
	<!ENTITY ns_imrep "http://ns.adobe.com/ImageReplacement/1.0/">
	<!ENTITY ns_sfw "http://ns.adobe.com/SaveForWeb/1.0/">
	<!ENTITY ns_custom "http://ns.adobe.com/GenericCustomNamespace/1.0/">
	<!ENTITY ns_adobe_xpath "http://ns.adobe.com/XPath/1.0/">
]>
<svg version="1.1" id="图层_1" xmlns:x="&ns_extend;" xmlns:i="&ns_ai;" xmlns:graph="&ns_graphs;"
	 xmlns="http://www.w3.org/2000/svg" xmlns:xlink="http://www.w3.org/1999/xlink" x="0px" y="0px" width="65px" height="40px"
	 viewBox="0 0 65 40" style="enable-background:new 0 0 65 40;" xml:space="preserve">
<metadata>
	<sfw  xmlns="&ns_sfw;">
		<slices></slices>
		<sliceSourceBounds  height="40" width="65" y="-40" x="0" bottomLeftOrigin="true"></sliceSourceBounds>
	</sfw>
</metadata>
<g id="XMLID_1_">
	<path style="fill:#E7E6E6;" d="M64,29c0,5.5-4.5,10-10,10H11C5.5,39,1,34.5,1,29V11C1,5.5,5.5,1,11,1h43c5.5,0,10,4.5,10,10V29z"/>
	<path style="fill:none;stroke:#D0CECE;stroke-width:2;stroke-miterlimit:10;" d="M64,29c0,5.5-4.5,10-10,10H11C5.5,39,1,34.5,1,29
		V11C1,5.5,5.5,1,11,1h43c5.5,0,10,4.5,10,10V29z"/>
</g>
<g>
	<path style="fill:#767171;" d="M13.624,27.231h-1.251c0.078-0.943,0.116-1.732,0.129-2.63c-2.501,0.588-3.301,0.882-3.958,1.191
		c-0.039-0.572-0.129-1.067-0.284-1.609c0.413-0.046,0.799-0.108,1.186-0.154v-8.773c-0.425,0.031-0.709,0.077-0.98,0.139v-1.331
		c0.374,0.093,0.903,0.139,2.798,0.139c1.909,0,2.515-0.046,2.914-0.139v1.331c-0.206-0.046-0.425-0.077-0.683-0.108v7.938
		c0.387-0.108,0.709-0.217,0.941-0.325c-0.103,0.402-0.116,0.82-0.077,1.269c-0.31,0.078-0.593,0.14-0.864,0.201
		C13.495,25.391,13.546,26.211,13.624,27.231z M12.502,15.256h-2.063v2.182h2.063V15.256z M12.502,18.475h-2.063v2.089h2.063V18.475
		z M12.502,21.6h-2.063v2.274c0.761-0.123,1.457-0.263,2.063-0.402V21.6z M14.411,15.906v-1.223
		c0.722,0.062,1.521,0.078,2.501,0.078c0.967,0,1.509-0.016,2.205-0.078c-0.464,4.395-1.006,6.87-1.753,8.603
		c0.825,1.053,1.573,1.485,2.759,1.795c-0.464,0.759-0.606,1.067-0.799,1.578c-1.057-0.696-1.921-1.423-2.553-2.212
		c-0.606,1.036-1.276,1.825-2.024,2.568c-0.271-0.356-0.722-0.759-1.096-1.006c1.031-0.743,1.831-1.517,2.45-2.568
		c-0.774-2.043-0.941-2.816-1.238-7.566C14.707,15.891,14.552,15.891,14.411,15.906z M16.654,22.266
		c0.813-2.058,1.058-4.271,1.147-6.421c-0.864,0-1.521,0-2.05,0.016C15.764,19.14,16.177,21.398,16.654,22.266z"/>
	<path style="fill:#767171;" d="M23.324,20.316c-0.503-0.495-1.199-1.006-1.856-1.408l0.554-1.129
		c0.735,0.417,1.302,0.82,1.96,1.315L23.324,20.316z M23.53,24.323c-0.245,0.882-0.451,1.764-0.606,2.677
		c-0.502-0.356-0.825-0.604-1.276-0.852c0.322-0.711,0.619-1.531,0.928-2.506c0.258-0.82,0.452-1.501,0.658-2.367
		c0.258,0.294,0.58,0.495,0.98,0.681C24.033,22.497,23.878,23.023,23.53,24.323z M23.698,16.742
		c-0.49-0.681-1.187-1.423-1.753-1.826l0.786-1.006c0.606,0.619,1.173,1.191,1.792,1.81L23.698,16.742z M25.967,17.128
		c-0.335-1.006-0.657-1.795-1.07-2.584l0.89-0.479c0.451,0.805,0.812,1.547,1.173,2.491L25.967,17.128z M27.966,14.962
		c0-0.696-0.051-1.439-0.103-1.826c0.335,0.046,0.916,0.077,1.264,0.093c0.271,0.015,0.31,0.108,0.09,0.34
		c-0.129,0.139-0.258,0.479-0.258,0.805v3.45c1.534,0,2.192-0.031,2.836-0.108c-0.052,0.356-0.09,1.3-0.09,1.841v6.251
		c0,1.099-0.064,1.237-1.934,1.454c-0.051-0.495-0.181-0.975-0.438-1.454c1.187,0.046,1.328-0.047,1.328-0.526v-1.253h-4.268v3.172
		h-1.135c0.064-0.867,0.09-1.485,0.09-2.29v-5.354c0-0.666-0.039-1.501-0.078-1.841c0.567,0.062,1.483,0.108,2.695,0.108V14.962z
		 M30.661,20.377v-1.516h-4.268v1.516H30.661z M26.393,21.398v1.578h4.268v-1.578H26.393z M30.596,17.051
		c-0.284-0.216-0.554-0.355-0.902-0.464c0.593-0.789,1.07-1.826,1.379-2.832c0.374,0.263,0.722,0.479,1.096,0.666
		c0.193,0.108,0.206,0.232,0,0.309C31.95,14.792,31.692,15.132,30.596,17.051z"/>
	<path style="fill:#767171;" d="M35.139,27.495c-0.244-0.511-0.58-0.944-1.044-1.347c2.398-0.711,4.371-2.413,4.81-4.719
		c-1.908,0.016-3.03,0.062-4.358,0.154v-1.376c1.38,0.077,2.501,0.124,4.5,0.139c0.104-0.913,0.129-1.903,0.104-2.955
		c-1.883,0.015-2.862,0.046-4.011,0.139v-1.393c1.432,0.093,2.656,0.139,5.3,0.139c0.709-1.408,1.006-2.305,1.251-3.249
		c0.399,0.278,1.199,0.758,1.354,0.805c0.232,0.062,0.258,0.139-0.064,0.387c-0.181,0.139-0.864,1.021-1.418,2.058
		c1.443-0.016,2.127-0.046,3.172-0.139v1.393c-1.315-0.108-2.051-0.139-4.423-0.139c0.025,1.16,0,2.058-0.104,2.955
		c2.618,0,3.456-0.031,4.926-0.139v1.376c-1.457-0.107-2.282-0.154-4.835-0.154c1.108,2.568,2.952,3.729,5.247,4.054
		c-0.399,0.479-0.593,1.006-0.709,1.702c-2.347-0.929-4.332-2.615-4.938-5.075C39.343,24.246,38.002,25.777,35.139,27.495z
		 M38.104,16.123c-0.335-0.727-0.863-1.671-1.289-2.135l0.992-0.758c0.388,0.65,0.968,1.5,1.393,2.058L38.104,16.123z"/>
	<path style="fill:#767171;" d="M48.978,19.852c-0.464-0.65-1.328-1.331-1.908-1.609l0.735-1.067
		c0.645,0.402,1.405,0.975,1.96,1.501L48.978,19.852z M49.223,24.184c-0.206,0.929-0.426,1.888-0.619,2.801
		c-0.451-0.449-0.863-0.712-1.328-0.897c0.361-0.712,0.671-1.609,0.941-2.584c0.232-0.913,0.451-1.856,0.632-2.8
		c0.271,0.34,0.645,0.619,1.045,0.774C49.674,22.28,49.455,23.209,49.223,24.184z M49.558,16.309
		c-0.387-0.511-1.108-1.269-1.74-1.718l0.748-1.021c0.632,0.495,1.25,1.052,1.779,1.594L49.558,16.309z M53.684,21.12
		c-1.057,0.016-1.895,0.063-2.553,0.155v-1.47c0.658,0.093,1.496,0.139,2.553,0.155v-3.25c-1.289,0.016-2.269,0.062-3.029,0.155
		v-1.454c0.89,0.108,2.089,0.154,3.726,0.154c1.638,0,2.824-0.046,3.714-0.154v1.454c-0.813-0.093-1.87-0.139-3.288-0.155v3.25
		c1.187-0.016,2.089-0.062,2.811-0.155v1.47c-0.722-0.093-1.624-0.14-2.811-0.155v4.101c1.444-0.016,2.553-0.063,3.392-0.155v1.455
		c-0.955-0.108-2.244-0.155-3.984-0.155c-1.741,0-3.03,0.047-3.984,0.155v-1.455c0.851,0.093,1.973,0.14,3.455,0.155V21.12z
		 M53.787,15.241c-0.104-0.666-0.283-1.253-0.541-1.826l1.212-0.479c0.244,0.603,0.438,1.145,0.605,1.81L53.787,15.241z"/>
</g>
<g>
</g>
<g>
</g>
<g>
</g>
<g>
</g>
<g>
</g>
<g>
</g>
<g>
</g>
<g>
</g>
<g>
</g>
<g>
</g>
<g>
</g>
<g>
</g>
<g>
</g>
<g>
</g>
<g>
</g>
</svg>
